<svg width="640" height="420" viewBox="0 0 640 420" fill="none" xmlns="http://www.w3.org/2000/svg">
  <defs>
    <linearGradient id="bg" x1="30" y1="22" x2="612" y2="394" gradientUnits="userSpaceOnUse">
      <stop stop-color="#0E1830"/>
      <stop offset="1" stop-color="#08111F"/>
    </linearGradient>
  </defs>
  <rect width="640" height="420" rx="28" fill="url(#bg)"/>
  <rect x="24" y="24" width="592" height="372" rx="24" fill="#0F1A30" stroke="#243754"/>
  <text x="52" y="68" fill="#E2E8F0" font-size="24" font-weight="800" font-family="Pretendard, 'Malgun Gothic', sans-serif">실시간 견적 리스트</text>
  <text x="52" y="96" fill="#7B89A5" font-size="13" font-family="Pretendard, 'Malgun Gothic', sans-serif">견적이 들어오는 순서와 최저가 상태를 한 번에 보여줍니다</text>
  <rect x="52" y="128" width="536" height="58" rx="20" fill="#111D34"/>
  <rect x="72" y="145" width="74" height="24" rx="12" fill="#123D6A"/>
  <text x="86" y="161" fill="#A5F3FC" font-size="12" font-weight="700" font-family="Pretendard, 'Malgun Gothic', sans-serif">최저가</text>
  <text x="174" y="162" fill="#E2E8F0" font-size="15" font-weight="700" font-family="Pretendard, 'Malgun Gothic', sans-serif">서울 딜러 A</text>
  <text x="464" y="162" fill="#E0F2FE" font-size="18" font-weight="900" font-family="Pretendard, 'Malgun Gothic', sans-serif">57만원</text>
  <rect x="52" y="200" width="536" height="58" rx="20" fill="#111D34"/>
  <rect x="72" y="217" width="74" height="24" rx="12" fill="#1E293B"/>
  <text x="92" y="233" fill="#CBD5E1" font-size="12" font-weight="700" font-family="Pretendard, 'Malgun Gothic', sans-serif">대기</text>
  <text x="174" y="234" fill="#E2E8F0" font-size="15" font-weight="700" font-family="Pretendard, 'Malgun Gothic', sans-serif">경기 딜러 B</text>
  <text x="464" y="234" fill="#E2E8F0" font-size="18" font-weight="800" font-family="Pretendard, 'Malgun Gothic', sans-serif">59만원</text>
  <rect x="52" y="272" width="536" height="58" rx="20" fill="#111D34"/>
  <rect x="72" y="289" width="74" height="24" rx="12" fill="#1D4ED8" opacity="0.28"/>
  <text x="86" y="305" fill="#BFDBFE" font-size="12" font-weight="700" font-family="Pretendard, 'Malgun Gothic', sans-serif">상담중</text>
  <text x="174" y="306" fill="#E2E8F0" font-size="15" font-weight="700" font-family="Pretendard, 'Malgun Gothic', sans-serif">인천 딜러 C</text>
  <text x="464" y="306" fill="#E2E8F0" font-size="18" font-weight="800" font-family="Pretendard, 'Malgun Gothic', sans-serif">60만원</text>
  <text x="52" y="366" fill="#38BDF8" font-size="13" font-family="Pretendard, 'Malgun Gothic', sans-serif">견적 도착 14건 · 상담 연결 가능</text>
</svg>
