<svg width="640" height="420" viewBox="0 0 640 420" fill="none" xmlns="http://www.w3.org/2000/svg">
  <defs>
    <linearGradient id="bg" x1="18" y1="18" x2="604" y2="392" gradientUnits="userSpaceOnUse">
      <stop stop-color="#0E1830"/>
      <stop offset="1" stop-color="#08111F"/>
    </linearGradient>
  </defs>
  <rect width="640" height="420" rx="28" fill="url(#bg)"/>
  <rect x="24" y="24" width="592" height="372" rx="24" fill="#0F1A30" stroke="#243754"/>
  <text x="52" y="68" fill="#E2E8F0" font-size="24" font-weight="800" font-family="Pretendard, 'Malgun Gothic', sans-serif">계약 완료 화면</text>
  <text x="52" y="96" fill="#7B89A5" font-size="13" font-family="Pretendard, 'Malgun Gothic', sans-serif">최종 선택 조건과 진행 상태를 한 장에서 확인하는 예시입니다</text>
  <rect x="52" y="126" width="248" height="220" rx="24" fill="#111D34"/>
  <text x="76" y="162" fill="#38BDF8" font-size="14" font-weight="700" font-family="Pretendard, 'Malgun Gothic', sans-serif">선택 완료</text>
  <text x="76" y="200" fill="#F8FAFC" font-size="28" font-weight="900" font-family="Pretendard, 'Malgun Gothic', sans-serif">월 57만원</text>
  <text x="76" y="228" fill="#94A3B8" font-size="13" font-family="Pretendard, 'Malgun Gothic', sans-serif">보증금 없음 · 48개월 · 정비 포함</text>
  <rect x="76" y="258" width="140" height="16" rx="8" fill="#34D399" opacity="0.8"/>
  <rect x="76" y="286" width="104" height="12" rx="6" fill="#2E415C"/>
  <rect x="324" y="126" width="264" height="220" rx="24" fill="#0B1425"/>
  <text x="348" y="166" fill="#E2E8F0" font-size="16" font-weight="700" font-family="Pretendard, 'Malgun Gothic', sans-serif">진행 단계</text>
  <rect x="348" y="190" width="216" height="46" rx="16" fill="#10213A"/>
  <text x="372" y="219" fill="#BFDBFE" font-size="14" font-family="Pretendard, 'Malgun Gothic', sans-serif">1. 상담 접수 완료</text>
  <rect x="348" y="246" width="216" height="46" rx="16" fill="#10213A"/>
  <text x="372" y="275" fill="#BFDBFE" font-size="14" font-family="Pretendard, 'Malgun Gothic', sans-serif">2. 최저가 확인 완료</text>
  <rect x="348" y="302" width="216" height="46" rx="16" fill="#10213A"/>
  <text x="372" y="331" fill="#A7F3D0" font-size="14" font-family="Pretendard, 'Malgun Gothic', sans-serif">3. 계약 진행 준비 완료</text>
</svg>
